<svg aria-hidden="true" style="position: absolute; width: 0; height: 0; overflow: hidden;" version="1.1" xmlns="http://www.w3.org/2000/svg" xmlns:xlink="http://www.w3.org/1999/xlink">
<defs>
<symbol id="icon-close_00001" viewBox="0 0 32 32">
<path fill="#fff" style="fill: var(--color1, #fff)" d="M32 16c0 8.837-7.163 16-16 16s-16-7.163-16-16c0-8.838 7.162-16 16-16s16 7.162 16 16z"></path>
<path fill="#000" style="fill: var(--color2, #000)" opacity="0.1" d="M30.933 16c0 8.246-6.688 14.933-14.933 14.933v2.133c9.425 0 17.067-7.642 17.067-17.067zM16 30.933c-8.246 0-14.933-6.688-14.933-14.933h-2.133c0 9.425 7.642 17.067 17.067 17.067zM1.067 16c0-8.246 6.688-14.933 14.933-14.933v-2.133c-9.425 0-17.067 7.642-17.067 17.067zM16 1.067c8.246 0 14.933 6.688 14.933 14.933h2.133c0-9.425-7.642-17.067-17.067-17.067z"></path>
<path fill="#000" style="fill: var(--color2, #000)" d="M22.4 10.783l-1.183-1.183-4.683 4.683-4.683-4.683-1.183 1.183 4.683 4.683-4.683 4.683 1.183 1.183 4.683-4.683 4.683 4.683 1.183-1.183-4.683-4.683z"></path>
</symbol>
</defs>
</svg>
